<svg xmlns="http://www.w3.org/2000/svg" viewBox="0 0 162.294 38"><defs><style>.a{fill:#0080c9;}.b{fill:#fff;}</style></defs><path class="a" d="M219,67.72a3.439,3.439,0,0,1,.244-1.326,3.843,3.843,0,0,1,.7-1.082,3.3,3.3,0,0,1,1.082-.733,3.34,3.34,0,0,1,1.326-.279,3.473,3.473,0,0,1,1.326.279,3.459,3.459,0,0,1,1.815,1.815,3.34,3.34,0,0,1,.279,1.326,3.474,3.474,0,0,1-.279,1.326,3.3,3.3,0,0,1-.733,1.082,2.754,2.754,0,0,1-1.082.7,3.721,3.721,0,0,1-2.652,0,3.843,3.843,0,0,1-1.082-.7A3.394,3.394,0,0,1,219,67.72" transform="translate(-142.581 -41.863)"/><path class="b" d="M263.466,41.429a10.343,10.343,0,0,1-3.35,2.408,11.358,11.358,0,0,1-4.92,1.012,12.5,12.5,0,0,1-4.536-.8,9.9,9.9,0,0,1-3.489-2.268,10.407,10.407,0,0,1-2.268-3.489,12.2,12.2,0,0,1-.8-4.432,11.072,11.072,0,0,1,.837-4.292,11.25,11.25,0,0,1,2.3-3.489,10.728,10.728,0,0,1,3.524-2.338A11.521,11.521,0,0,1,255.2,22.9a12.031,12.031,0,0,1,4.85.907A10.847,10.847,0,0,1,263.5,26.25l-3.8,4.118a6.792,6.792,0,0,0-1.71-1.4,5.02,5.02,0,0,0-2.687-.628,4.22,4.22,0,0,0-2.024.454,4.76,4.76,0,0,0-1.535,1.221,5.653,5.653,0,0,0-.977,1.745,6.911,6.911,0,0,0-.314,2.094,6.573,6.573,0,0,0,.314,1.989,4.523,4.523,0,0,0,.977,1.745,4.864,4.864,0,0,0,1.535,1.256,4.336,4.336,0,0,0,2.024.489,5.415,5.415,0,0,0,2.722-.628,6.018,6.018,0,0,0,1.745-1.4l3.7,4.118Z" transform="translate(-158.923 -14.909)"/><path class="b" d="M311.562,39.435a4.411,4.411,0,0,0,2.094-.454,5,5,0,0,0,1.57-1.256,5.447,5.447,0,0,0,.942-1.78,6.628,6.628,0,0,0,.314-2.024,6.466,6.466,0,0,0-.314-2.024,4.956,4.956,0,0,0-.942-1.745,4.545,4.545,0,0,0-1.57-1.221,4.607,4.607,0,0,0-2.094-.454,4.655,4.655,0,0,0-2.129.454,5,5,0,0,0-1.57,1.221,5.278,5.278,0,0,0-.942,1.745,6.627,6.627,0,0,0-.314,2.024,6.465,6.465,0,0,0,.314,2.024,5.446,5.446,0,0,0,.942,1.78,4.546,4.546,0,0,0,3.7,1.71M300.5,33.922a11.409,11.409,0,0,1,.8-4.257,10.417,10.417,0,0,1,5.758-5.827,11.751,11.751,0,0,1,4.5-.837,11.448,11.448,0,0,1,4.466.837,10.08,10.08,0,0,1,3.455,2.338,11.153,11.153,0,0,1,2.268,3.489,11.544,11.544,0,0,1,.8,4.257,11.409,11.409,0,0,1-.8,4.257,11.153,11.153,0,0,1-2.268,3.489,11.487,11.487,0,0,1-3.455,2.373,10.971,10.971,0,0,1-4.466.872,11.139,11.139,0,0,1-4.5-.872,10.663,10.663,0,0,1-3.489-2.373,11.153,11.153,0,0,1-2.268-3.489,11.544,11.544,0,0,1-.8-4.257" transform="translate(-195.642 -14.974)"/><path class="b" d="M369.7,23.989h6.037l.209,2.268a7.543,7.543,0,0,1,5.967-2.757,8.608,8.608,0,0,1,2.2.279,8.375,8.375,0,0,1,1.675.663,7.281,7.281,0,0,1,1.256.907,11.161,11.161,0,0,1,.907.977,8.427,8.427,0,0,1,3.106-2.094,10.106,10.106,0,0,1,3.8-.733,7.849,7.849,0,0,1,6.037,2.233,8.592,8.592,0,0,1,2.094,6.107v12.7h-6.316V32.852a4.646,4.646,0,0,0-.8-2.861,3.008,3.008,0,0,0-2.443-1.012,3.7,3.7,0,0,0-2.931,1.256,4.739,4.739,0,0,0-1.082,3.245V44.541h-6.107V32.852a4.647,4.647,0,0,0-.8-2.861,3.008,3.008,0,0,0-2.443-1.012,3.8,3.8,0,0,0-2.931,1.256,4.758,4.758,0,0,0-1.117,3.245V44.541H369.7V23.989Z" transform="translate(-240.695 -15.3)"/><path class="b" d="M6.281,39.293a6.411,6.411,0,0,0,3.629.837,4.6,4.6,0,0,0,3.664-1.57A6.061,6.061,0,0,0,14.9,34.408a7.762,7.762,0,0,0-.244-1.989,5.659,5.659,0,0,0-.733-1.675A3.536,3.536,0,0,0,12.6,29.592a4.616,4.616,0,0,0-3.838-.07A3.742,3.742,0,0,0,7.4,30.57a5.725,5.725,0,0,0-.837,1.5,5.66,5.66,0,0,0-.279,1.71v5.513ZM0,24.184H6.037c.07.384.1.768.14,1.117s.07.733.07,1.117a6.6,6.6,0,0,1,2.582-1.954,8.228,8.228,0,0,1,3.28-.663,8.415,8.415,0,0,1,3.943.872,8.527,8.527,0,0,1,2.861,2.338,9.986,9.986,0,0,1,1.71,3.385,13.4,13.4,0,0,1,.558,3.908,11.415,11.415,0,0,1-.977,4.955,9.827,9.827,0,0,1-2.512,3.455,10.134,10.134,0,0,1-3.455,2.024,11.347,11.347,0,0,1-3.8.663,9.407,9.407,0,0,1-2.443-.279c-.628-.174-1.221-.349-1.745-.523v8.9H0V24.184Z" transform="translate(0 -15.495)"/><path class="b" d="M66.5,0h6.281V29.242H66.5Z" transform="translate(-43.295)"/><path class="b" d="M104.02,35.013a6.449,6.449,0,0,0-.837-.1c-.419-.035-.872-.07-1.4-.07a7.067,7.067,0,0,0-3.734.733,2.353,2.353,0,0,0-1.082,2.094c0,1.71,1.012,2.547,3.071,2.547a4.307,4.307,0,0,0,1.466-.244,3.66,3.66,0,0,0,1.256-.7,3.941,3.941,0,0,0,.907-1.082,3.116,3.116,0,0,0,.349-1.535v-1.64Zm0,7.153a7.052,7.052,0,0,1-2.652,1.884,9.343,9.343,0,0,1-5.862.349,6.878,6.878,0,0,1-2.233-1.047,5.507,5.507,0,0,1-1.71-1.954,6.252,6.252,0,0,1-.663-3.071,6.905,6.905,0,0,1,.733-3.21,6.781,6.781,0,0,1,1.989-2.338,8.869,8.869,0,0,1,3-1.431,14.2,14.2,0,0,1,3.734-.489c.733,0,1.466,0,2.2.035a8.391,8.391,0,0,1,1.466.14v-.454a2.572,2.572,0,0,0-.314-1.326,3.081,3.081,0,0,0-.872-.907,3.411,3.411,0,0,0-1.256-.523,6.853,6.853,0,0,0-1.5-.14,10.071,10.071,0,0,0-3.489.523A10.436,10.436,0,0,0,94.25,29.4l-2.582-3.873c.454-.314.942-.628,1.5-.977a10.618,10.618,0,0,1,1.989-.872,12.955,12.955,0,0,1,2.547-.628,18.228,18.228,0,0,1,3.28-.244q4.711,0,6.909,2.512a9.782,9.782,0,0,1,2.233,6.77V44.051h-5.932l-.174-1.884Z" transform="translate(-59.181 -14.844)"/><path class="b" d="M153.835,23.989h6.037l.174,2.233a7.8,7.8,0,0,1,2.652-1.989,8.3,8.3,0,0,1,3.455-.733,7.5,7.5,0,0,1,5.618,2.094c1.4,1.4,2.094,3.489,2.094,6.211v12.7h-6.316V32.712a4.094,4.094,0,0,0-.837-2.722,2.958,2.958,0,0,0-2.373-1.012,4.372,4.372,0,0,0-1.849.384,4.226,4.226,0,0,0-1.326.977,3.817,3.817,0,0,0-.8,1.431,5.541,5.541,0,0,0-.279,1.745V44.576H153.8V23.989Z" transform="translate(-100.132 -15.3)"/></svg>